<svg width="1069" height="145" viewBox="0 0 1069 145" fill="none" xmlns="http://www.w3.org/2000/svg">
<path d="M71.464 6.14799C30.802 6.14799 0.832 35.47 0.832 75.484C0.832 115.498 30.802 144.82 71.464 144.82C111.478 144.82 141.448 115.498 141.448 75.484V67.708H69.682V92.656H110.02C106.942 105.616 92.686 118.252 72.112 118.252C48.136 118.252 30.316 100.27 30.316 75.484C30.316 50.86 48.136 33.202 72.112 33.202C88.15 33.202 100.624 40.654 106.132 50.374H138.532C130.918 25.588 105.97 6.14799 71.464 6.14799ZM158.204 141.58H187.04V92.98C187.04 78.562 196.274 69.814 211.664 69.814C217.334 69.814 222.356 70.948 226.406 73.054L226.082 46C222.356 44.704 218.954 44.38 213.608 44.38C201.458 44.38 192.71 48.754 187.04 56.368V46.648H158.204V141.58ZM281.222 143.848C304.226 143.848 322.856 131.374 327.716 113.23H298.718C296.288 117.766 289.484 120.682 281.222 120.682C270.368 120.682 262.754 114.364 260.486 103.348H329.984C330.47 99.946 330.632 96.868 330.632 94.114C330.632 65.116 310.22 44.38 281.222 44.38C252.224 44.38 231.812 65.278 231.812 94.114C231.812 123.112 252.224 143.848 281.222 143.848ZM260.324 84.718C262.754 73.378 269.882 67.222 281.222 67.222C292.562 67.222 300.014 73.378 302.444 84.718H260.324ZM392.123 143.848C415.127 143.848 433.757 131.374 438.617 113.23H409.619C407.189 117.766 400.385 120.682 392.123 120.682C381.269 120.682 373.655 114.364 371.387 103.348H440.885C441.371 99.946 441.533 96.868 441.533 94.114C441.533 65.116 421.121 44.38 392.123 44.38C363.125 44.38 342.713 65.278 342.713 94.114C342.713 123.112 363.125 143.848 392.123 143.848ZM371.225 84.718C373.655 73.378 380.783 67.222 392.123 67.222C403.463 67.222 410.915 73.378 413.345 84.718H371.225ZM458.473 141.58H487.309V92.818C487.309 78.076 494.113 69.166 505.453 69.166C516.307 69.166 522.139 77.104 522.139 91.522V141.58H550.975V86.662C550.975 60.418 535.909 44.38 513.877 44.38C501.727 44.38 492.979 48.754 487.309 56.368V46.648H458.473V141.58ZM616.695 141.58H646.179V106.426H667.401C701.745 106.426 721.833 87.31 721.833 57.826C721.833 28.666 701.745 9.55 667.401 9.55H616.695V141.58ZM646.179 80.344V35.632H666.105C682.467 35.632 692.349 43.246 692.349 57.826C692.349 72.568 682.467 80.344 666.105 80.344H646.179ZM781.642 44.38C752.32 44.38 731.26 65.278 731.26 94.114C731.26 122.95 752.32 143.848 781.642 143.848C810.964 143.848 832.024 122.95 832.024 94.114C832.024 65.278 810.964 44.38 781.642 44.38ZM781.642 69.004C795.25 69.004 804.16 79.534 804.16 94.114C804.16 108.694 795.25 119.224 781.642 119.224C768.034 119.224 759.124 108.694 759.124 94.114C759.124 79.534 768.034 69.004 781.642 69.004ZM863.336 0.801993C853.13 0.801993 845.678 8.25399 845.678 18.46C845.678 28.666 853.13 36.118 863.336 36.118C873.542 36.118 880.994 28.666 880.994 18.46C880.994 8.25399 873.542 0.801993 863.336 0.801993ZM877.754 46.648H848.918V141.904H877.754V46.648ZM899.385 141.58H928.221V92.818C928.221 78.076 935.025 69.166 946.365 69.166C957.219 69.166 963.051 77.104 963.051 91.522V141.58H991.887V86.662C991.887 60.418 976.821 44.38 954.789 44.38C942.639 44.38 933.891 48.754 928.221 56.368V46.648H899.385V141.58ZM1068.13 46.648H1049.34V18.46H1020.5V46.648H1001.71V71.434H1020.5V141.58H1049.34V71.434H1068.13V46.648Z" fill="#7BD88A"/>
</svg>
